<?xml version="1.0" encoding="iso-8859-1"?>
<!-- Generator: Adobe Illustrator 19.0.0, SVG Export Plug-In . SVG Version: 6.00 Build 0)  -->
<svg version="1.1" id="Layer_1" xmlns="http://www.w3.org/2000/svg" xmlns:xlink="http://www.w3.org/1999/xlink" x="0px" y="0px"
	 viewBox="0 0 511.816 511.816" style="enable-background:new 0 0 511.816 511.816;" xml:space="preserve">
<g transform="translate(1)">
	<g>
		<path style="fill:#FFE100;" d="M509.11,110.859l-11.947,4.267c-8.533,19.627-32.427,38.4-54.613,46.933v8.533
			c0,140.8-91.307,258.56-213.333,285.013c-8.533,1.707-4.267,3.413,0,4.267c133.973-14.507,238.933-138.24,238.933-289.28v-8.533
			c23.04-8.533,35.84-29.013,42.667-49.493C510.816,111.712,509.963,110.859,509.11,110.859"/>
		<path style="fill:#FFE100;" d="M331.616,59.659c-51.2,0.853-85.333,49.493-85.333,105.813v13.653
			c-74.24-13.653-151.04-46.933-179.2-76.8c-32.427,63.147-13.653,90.453,25.6,119.467c-26.453,0-31.573,6.827-48.64-7.68
			c-1.707-0.853-3.413,0-2.56,1.707c14.507,52.907,46.933,80.213,85.333,92.16c-34.987,0-41.813,16.213-65.707,0
			c-1.707-0.853-3.413,0.853-2.56,1.707c18.773,52.053,39.253,57.173,93.867,57.173c-27.307,20.48-46.933,40.96-116.053,42.667
			c-2.56,0-4.267,3.413-1.707,5.12c25.6,21.333,88.747,37.547,177.493,37.547c17.92,0-16.213-1.707,0-5.12
			c122.027-26.453,213.333-144.213,213.333-285.013v-8.533c23.04-8.533,48.64-29.013,55.467-49.493c0-0.853-0.853-2.56-1.707-1.707
			l-36.693,17.067c-0.853,0-1.707-0.853-0.853-1.707c51.2-42.667,21.333-11.093,36.693-56.32c0-0.853-0.853-1.707-1.707-1.707
			c-23.04,9.387-42.667,18.773-59.733,23.893c-2.56,0.853-5.973,0.853-8.533-0.853C397.323,76.725,353.803,59.659,331.616,59.659"/>
	</g>
	<path style="fill:#FFFFFF;" d="M92.683,221.792c-39.253-29.013-58.88-56.32-25.6-119.467c8.533,8.533,20.48,17.067,35.84,26.453
		c-22.187-14.507-41.813-30.72-61.44-52.053C9.056,139.872,44.896,192.779,84.15,221.792"/>
	<path style="fill:#FFA800;" d="M492.043,102.325l-11.947,4.267c-8.533,19.627-32.427,38.4-54.613,46.933v8.533
		c0,140.8-91.307,258.56-213.333,285.013c-8.533,1.707-4.267,3.413,0,4.267c133.973-14.507,238.933-138.24,238.933-289.28v-8.533
		c23.04-8.533,35.84-29.013,42.667-49.493C493.75,103.179,492.896,102.325,492.043,102.325"/>
	<path style="fill:#FFFFFF;" d="M33.803,414.645c-1.707-1.707-0.853-5.12,2.56-5.12c69.12-1.707,88.747-22.187,116.053-42.667
		c-54.613,0-75.947-5.973-93.867-57.173c-0.853-1.707,0.853-2.56,2.56-1.707c24.747,15.36,31.573,0,65.707,0
		c-38.4-11.093-70.827-39.253-85.333-91.307c-8.533-2.56-15.36-6.827-22.187-12.8c-1.707-0.853-3.413,0-2.56,1.707
		c14.507,52.907,64,91.307,102.4,102.4c-34.987,0-58.027,5.12-82.773-10.24c-2.56-1.707-4.267-0.853-3.413,0.853
		c18.773,52.053,56.32,68.267,110.933,68.267c-27.307,20.48-64,40.96-133.12,42.667c-2.56,0-4.267,3.413-1.707,5.12
		c25.6,21.333,88.747,37.547,177.493,37.547c2.56,0,5.12,0,7.68,0C114.87,449.632,58.55,434.272,33.803,414.645"/>
	<path d="M186.55,460.725c-84.48,0-152.747-14.507-183.467-39.253c-3.413-3.413-5.12-7.68-3.413-12.8
		c1.707-4.267,5.973-7.68,11.093-7.68c50.347-0.853,82.773-12.8,107.52-27.307c-47.787-5.973-77.653-29.013-93.013-72.533
		c-1.707-4.267,0-8.533,3.413-11.093s8.533-2.56,11.947-0.853c12.8,8.533,25.6,10.24,40.96,10.24
		c-32.427-19.627-62.293-52.053-74.24-92.16c-0.853-4.267,0.853-8.533,4.267-11.093c4.267-2.56,8.533-1.707,11.947,0.853
		c9.387,7.68,19.627,12.8,34.987,15.36c-33.28-34.133-53.76-84.48-24.747-139.947c1.707-1.707,3.413-3.413,6.827-4.267
		c2.56,0,5.12,0.853,7.68,2.56c52.907,55.467,101.547,81.067,190.293,98.133v-3.413C237.75,103.179,286.39,51.979,346.976,51.125
		c23.893,0,57.173,17.067,70.827,24.747c0.853,0,1.707,0.853,1.707,0c17.067-5.12,37.547-13.653,61.44-23.893
		c3.413-1.707,7.68-0.853,10.24,1.707c2.56,2.56,3.413,5.973,1.707,9.387c-4.267,11.947-11.093,24.747-21.333,36.693l17.067-5.973
		c3.413-0.853,7.68,0,10.24,2.56c2.56,2.56,3.413,6.827,2.56,10.24c-7.68,24.747-23.04,42.667-41.813,52.053v3.413
		c0,23.893-2.56,46.933-7.68,69.973c-0.853,4.267-5.973,7.68-10.24,6.827s-7.68-5.973-6.827-10.24
		c5.12-21.333,6.827-44.373,6.827-66.56v-8.533c0-3.413,2.56-6.827,5.12-7.68c16.213-5.973,25.6-18.773,31.573-29.867l-33.28,11.093
		c-4.267,1.707-9.387,0-11.093-4.267c-0.853-4.267,0-9.387,3.413-11.947c13.653-11.093,23.893-23.04,31.573-35.84
		c-17.067,6.827-32.427,12.8-45.227,17.067c-5.12,1.707-10.24,0.853-15.36-1.707c-9.387-5.12-40.96-22.187-60.587-22.187
		c0,0,0,0-0.853,0c-51.2,0.853-92.16,44.373-92.16,97.28v13.653c0,2.56-0.853,5.12-3.413,6.827
		c-1.707,1.707-4.267,1.707-6.827,1.707c-93.867-17.067-145.92-41.813-200.533-95.573c-25.6,64.853,27.307,110.08,45.227,122.88
		c3.413,2.56,4.267,5.973,3.413,9.387c-0.853,3.413-5.12,5.973-8.533,5.973c-17.067,0-35.84-1.707-52.907-9.387
		c18.773,39.253,57.173,68.267,89.6,77.653c4.267,0.853,6.827,5.12,5.973,9.387c-0.853,4.267-4.267,7.68-8.533,7.68
		c-6.827,0-13.653,0-20.48,0.853c-17.92,0.853-34.133,0.853-49.493-4.267c17.067,32.427,46.933,46.08,95.573,46.08
		c3.413,0,6.827,2.56,8.533,5.973c0.853,3.413,0,7.68-3.413,9.387c-27.307,20.48-61.44,39.253-120.32,43.52
		c28.16,13.653,80.213,26.453,157.867,26.453c98.133,0,186.027-60.587,229.547-157.013c1.707-4.267,6.827-5.973,11.093-4.267
		c4.267,1.707,5.973,6.827,4.267,11.093C385.376,396.725,291.51,460.725,186.55,460.725z M14.176,407.819L14.176,407.819
		L14.176,407.819z M31.243,303.712L31.243,303.712L31.243,303.712z M13.323,209.845L13.323,209.845L13.323,209.845z M24.416,202.165
		L24.416,202.165L24.416,202.165z M494.603,110.859L494.603,110.859L494.603,110.859z M486.923,67.339L486.923,67.339
		L486.923,67.339z"/>
	<path d="M442.55,264.459c0-5.12-3.413-8.533-8.533-8.533c-5.12,0-8.533,3.413-8.533,8.533s3.413,8.533,8.533,8.533
		C439.136,272.992,442.55,269.579,442.55,264.459"/>
</g>
<g>
</g>
<g>
</g>
<g>
</g>
<g>
</g>
<g>
</g>
<g>
</g>
<g>
</g>
<g>
</g>
<g>
</g>
<g>
</g>
<g>
</g>
<g>
</g>
<g>
</g>
<g>
</g>
<g>
</g>
</svg>
